<?xml version="1.0" encoding="UTF-8" standalone="no"?>
<!-- Created with Inkscape (http://www.inkscape.org/) -->

<svg
   width="129.73775mm"
   height="114.98742mm"
   viewBox="0 0 129.73775 114.98742"
   version="1.1"
   id="svg1"
   xmlns="http://www.w3.org/2000/svg"
   xmlns:svg="http://www.w3.org/2000/svg">
  <defs
     id="defs1" />
  <g
     id="layer1"
     transform="translate(-47.007013,-74.622474)">
    <path
       d="M 104.62797,80.322207 84.402867,115.35319 c -8e-6,1e-5 -14.495799,25.10743 -14.495807,25.10744 l -20.225554,35.03155 c -3.221289,5.57942 0.80531,12.55371 7.247876,12.55371 h 3.979522 c 8.970026,0 17.258668,-4.78547 21.743658,-12.55375 l 3.739855,-6.47766 14.495603,-25.10728 c 2.06553,-3.57763 5.75532,-9.96287 9.70164,-10.56502 0.85178,-0.12997 1.72073,-0.12997 2.57251,-2e-5 3.94633,0.6021 7.63619,6.9873 9.70176,10.56491 l 0,0 c -1e-5,-3e-5 14.49589,25.10744 14.49588,25.10741 l 3.73986,6.47766 c 4.48499,7.76828 12.77363,12.55375 21.74366,12.55375 h 3.979 c 6.44259,0 10.46923,-6.97429 7.24796,-12.55376 l -20.2252,-35.03145 c -1e-5,-1e-5 -14.4958,-25.10744 -14.49581,-25.10745 L 119.12383,80.322161 c -3.22133,-5.579438 -11.27457,-5.579413 -14.49586,4.6e-5 z"
       style="fill:#ff9955;stroke:#ba4e00;stroke-width:3.128;stroke-dasharray:none;stroke-opacity:1"
       id="path3" />
    <path
       id="text3"
       style="font-weight:600;font-size:21.8843px;font-family:'URW Gothic';-inkscape-font-specification:'URW Gothic, Semi-Bold';fill:#ffb380;stroke:#ba4e00;stroke-width:0.882596;stroke-dasharray:none;stroke-opacity:1"
       d="m 107.60605,162.4991 a 0.94629683,0.94629683 0 0 0 -0.9462,0.94619 v 5.2e-4 8.34936 c 0,0.52263 -0.006,1.37063 0.0305,1.89187 0.056,0.79718 0.19058,1.44803 0.416,2.02055 0.19116,0.48551 0.65071,1.20835 1.01027,1.58647 0.78766,0.82834 1.86695,1.38869 3.05046,1.58491 0.51502,0.0854 1.36868,0.0854 1.88413,0.002 1.06628,-0.17153 2.04295,-0.6302 2.79672,-1.3069 0.38826,-0.34857 0.89853,-1.03668 1.125,-1.50688 0.32103,-0.66655 0.5057,-1.42667 0.57516,-2.38073 0.0379,-0.52112 0.032,-1.36925 0.032,-1.89188 v -8.34884 a 0.94629683,0.94629683 0 0 0 -0.9462,-0.94671 h -1.10536 a 0.94629683,0.94629683 0 0 0 -0.94671,0.94671 v 8.34884 c 0,0.52263 0.0126,1.37107 -0.0294,1.89188 -0.0119,0.14694 -0.0276,0.27945 -0.0481,0.40101 -0.0864,0.51217 -0.53716,1.27309 -0.96739,1.56269 -0.1536,0.1034 -0.32144,0.18936 -0.50074,0.2558 -0.48749,0.18063 -1.36766,0.17969 -1.85312,-0.006 -0.17131,-0.0655 -0.33237,-0.1494 -0.48059,-0.2496 -0.42968,-0.29048 -0.87991,-1.05086 -0.96635,-1.56321 -0.0205,-0.12156 -0.0367,-0.25407 -0.0486,-0.40101 -0.042,-0.52063 -0.0295,-1.36873 -0.0295,-1.89136 v -8.34936 a 0.94629683,0.94629683 0 0 0 -0.94619,-0.94619 z m -10.044857,5.1e-4 a 1.4195929,1.4195929 0 0 0 -1.309998,0.87333 l -6.012553,14.42548 a 0.63079894,0.63079894 0 0 0 0.582393,0.87385 h 1.411801 a 1.4360832,1.4360832 0 0 0 1.319816,-0.86972 l 1.047481,-2.44067 a 1.4360832,1.4360832 0 0 1 1.319816,-0.86972 h 3.862804 a 1.4154473,1.4154473 0 0 1 1.307927,0.87437 l 1.00563,2.43137 a 1.4154473,1.4154473 0 0 0 1.30793,0.87437 h 1.41232 a 0.62922561,0.62922561 0 0 0 0.57981,-0.87282 l -6.051824,-14.42702 a 1.4231425,1.4231425 0 0 0 -1.312581,-0.87282 z m 24.050717,0 a 0.94629683,0.94629683 0 0 0 -0.94619,0.9462 v 14.28026 a 0.94629683,0.94629683 0 0 0 0.94619,0.9462 h 1.10588 a 0.94629683,0.94629683 0 0 0 0.94619,-0.9462 v -4.30103 a 0.29320907,0.29320907 0 0 1 0.53486,-0.16588 l 3.17551,4.63228 a 1.7959922,1.7959922 0 0 0 1.48157,0.78083 h 1.80557 a 0.47980861,0.47980861 0 0 0 0.38706,-0.76326 l -3.2582,-4.44779 c -0.30886,-0.4216 -0.14431,-0.85502 0.35088,-1.02165 0.33611,-0.1131 0.61791,-0.23477 0.87747,-0.37982 0.45556,-0.25461 1.10842,-0.81156 1.43298,-1.22008 0.49686,-0.62541 0.80716,-1.36047 0.93535,-2.2102 0.0779,-0.51633 0.077,-1.36966 5.1e-4,-1.88619 -0.13396,-0.90493 -0.46597,-1.70241 -0.98288,-2.3611 -0.32208,-0.41042 -0.97416,-0.96842 -1.43144,-1.21956 -0.70496,-0.38717 -1.53368,-0.57883 -2.70009,-0.64027 -0.52186,-0.0275 -1.36976,-0.0227 -1.89239,-0.0227 z m 2.99827,2.86701 c 0.21464,0 0.8133,-0.009 1.33428,0.031 0.33294,0.0255 0.61594,0.0672 0.85887,0.12867 0.50185,0.12703 1.20573,0.67756 1.41748,1.1498 0.0243,0.0543 0.0465,0.11021 0.0667,0.16743 0.17307,0.49048 0.17713,1.36795 0.0191,1.86397 -0.27153,0.85245 -0.9841,1.32207 -2.2319,1.46761 -0.51879,0.0605 -1.36821,0.0496 -1.89084,0.0496 a 0.76348837,0.76348837 0 0 1 -0.51987,-0.94619 v -2.96571 a 0.94629683,0.94629683 0 0 1 0.9462,-0.9462 z m -26.813343,2.02623 a 0.3337386,0.3337386 0 0 1 0.31471,0.22273 l 1.099159,3.11764 a 0.66968518,0.66968518 0 0 1 -0.631488,0.89193 h -1.565279 a 0.66968505,0.66968505 0 0 1 -0.631486,-0.89193 l 1.099675,-3.11764 a 0.3337386,0.3337386 0 0 1 0.314709,-0.22273 z" />
  </g>
</svg>
