<?xml version="1.0" encoding="UTF-8"?>
<svg role="img" viewBox="0 0 128 128" xmlns="http://www.w3.org/2000/svg" id="Flatpak--Streamline-Simple-Icons" height="128" width="128">
  <desc>
    Flatpak Streamline Icon: https://streamlinehq.com
  </desc>
  <title>Flatpak</title>
  <path d="M64 0c-2.9653333333333336 0 -5.925333333333333 0.7679999999999999 -8.586666666666666 2.304l-40.54933333333333 23.41333333333333a17.157333333333334 17.157333333333334 0 0 0 -8.586666666666666 14.869333333333332v46.82666666666666c0 6.1386666666666665 3.264 11.797333333333334 8.586666666666666 14.869333333333332l40.54933333333333 23.41333333333333a17.157333333333334 17.157333333333334 0 0 0 17.173333333333332 0l40.54933333333333 -23.41333333333333a17.157333333333334 17.157333333333334 0 0 0 8.586666666666666 -14.869333333333332V40.586666666666666a17.157333333333334 17.157333333333334 0 0 0 -8.586666666666666 -14.869333333333332L72.58666666666666 2.304A17.162666666666667 17.162666666666667 0 0 0 64 0Zm0 12.576c0.7999999999999999 0 1.5946666666666665 0.208 2.2986666666666666 0.6133333333333333l40.55466666666666 23.41333333333333c0.704 0.4106666666666666 1.2799999999999998 0.9973333333333333 1.68 1.6853333333333333L64 64v51.42399999999999a4.602666666666666 4.602666666666666 0 0 1 -2.2986666666666666 -0.6186666666666667l-40.55466666666666 -23.41333333333333a4.618666666666666 4.618666666666666 0 0 1 -2.2986666666666666 -3.9786666666666664V40.586666666666666c0 -0.816 0.21866666666666668 -1.6106666666666665 0.6186666666666667 -2.293333333333333L64 64Z" fill="#4CAF50" stroke-width="5.3333"></path>









</svg>
