<?xml version="1.0" encoding="UTF-8" standalone="no"?>
<svg
   width="128"
   height="128"
   viewBox="0 0 128 128"
   version="1.1"
   id="svg1"
   xmlns="http://www.w3.org/2000/svg">
  <defs id="defs1" />
  <g id="layer1">
    <g id="g31" transform="translate(18, 18) scale(2.6)">
      <path
         id="path12"
         style="fill:#00ece1;fill-opacity:1;stroke:#00b3e0;stroke-width:1;stroke-opacity:1"
         d="M 16.637,1.053 L 10.341,11.958 c -0.606,1.050 -0.102,1.922 1.070,2.226 0.902,0.234 1.772,0.589 2.584,1.058 0.960,0.554 1.824,1.258 2.560,2.085 0.264,0.296 0.619,0.274 0.818,-0.070 l 0.004,-0.008 a 0.414,0.414 0 0 1 0.718,0 l 3.714,6.432 2.975,5.152 a 3.804,3.804 0 0 0 3.294,1.902 H 33.774 a 1.268,1.268 0 0 0 1.098,-1.902 L 26.853,14.943 18.834,1.053 a 1.268,1.268 0 0 0 -2.196,0 z m -9.471,16.403 L 0.598,28.833 a 1.268,1.268 0 0 0 1.098,1.902 h 5.698 a 3.804,3.804 0 0 0 3.294,-1.902 l 2.975,-5.152 1.965,-3.404 c 0.198,-0.343 0.139,-0.856 -0.149,-1.129 -0.785,-0.745 -1.655,-1.395 -2.593,-1.936 -0.793,-0.458 -1.629,-0.835 -2.494,-1.126 -1.148,-0.386 -2.620,0.320 -3.226,1.370 z" />
      <path
         id="path29"
         style="fill:#0050ec;stroke:#003de0;stroke-width:1"
         d="m 31.800,23.608 1.229,2.128 1.229,2.128 a 0.573,0.573 0 0 1 -0.496,0.859 h -2.457 -2.457 a 0.573,0.573 0 0 1 -0.496,-0.859 l 1.229,-2.128 1.229,-2.128 a 0.573,0.573 0 0 1 0.992,0 z" />
    </g>
  </g>
</svg>
